<?xml version="1.0" encoding="UTF-8" standalone="no"?>
<!DOCTYPE svg PUBLIC "-//W3C//DTD SVG 1.1//EN" "http://www.w3.org/Graphics/SVG/1.1/DTD/svg11.dtd">
<svg version="1.1" xmlns="http://www.w3.org/2000/svg" xmlns:xlink="http://www.w3.org/1999/xlink" preserveAspectRatio="xMidYMid meet" viewBox="0 0 200 130" width="200" height="130"><defs><path d="M0 130L200 130C200 110.58 200 98.45 200 93.59C200 81.73 192.09 71.32 180.66 68.15C144.53 58.11 54.14 33 17.67 22.87C8.79 20.4 0 27.08 0 36.3C0 48.8 0 80.03 0 130Z" id="m8SQT05Yi"></path></defs><g><g><g><g><filter id="shadow2045030" x="-9" y="13.35" width="219" height="126.65" filterUnits="userSpaceOnUse" primitiveUnits="userSpaceOnUse"><feFlood></feFlood><feComposite in2="SourceAlpha" operator="in"></feComposite><feGaussianBlur stdDeviation="1"></feGaussianBlur><feOffset dx="1" dy="1" result="afterOffset"></feOffset><feFlood flood-color="#00aeef" flood-opacity="0.5"></feFlood><feComposite in2="afterOffset" operator="in"></feComposite><feMorphology operator="dilate" radius="1"></feMorphology><feComposite in2="SourceAlpha" operator="out"></feComposite></filter><path d="M0 130L200 130C200 110.58 200 98.45 200 93.59C200 81.73 192.09 71.32 180.66 68.15C144.53 58.11 54.14 33 17.67 22.87C8.79 20.4 0 27.08 0 36.3C0 48.8 0 80.03 0 130Z" id="b3UDnMX74J" fill="white" fill-opacity="1" filter="url(#shadow2045030)"></path></g><use xlink:href="#m8SQT05Yi" opacity="1" fill="#00aeef" fill-opacity="1"></use><g><use xlink:href="#m8SQT05Yi" opacity="1" fill-opacity="0" stroke="#00aeef" stroke-width="1" stroke-opacity="1"></use></g></g></g></g></svg>